<?xml version="1.0" encoding="UTF-8"?>
<svg width="36px" height="36px" viewBox="0 0 36 36" version="1.1" xmlns="http://www.w3.org/2000/svg" xmlns:xlink="http://www.w3.org/1999/xlink">
    <title>员工考勤</title>
    <defs>
        <filter x="-34.5%" y="-36.1%" width="168.9%" height="172.2%" filterUnits="objectBoundingBox" id="filter-1">
            <feOffset dx="0" dy="1" in="SourceAlpha" result="shadowOffsetOuter1"></feOffset>
            <feGaussianBlur stdDeviation="1" in="shadowOffsetOuter1" result="shadowBlurOuter1"></feGaussianBlur>
            <feColorMatrix values="0 0 0 0 0.878594882   0 0 0 0 0.625295366   0 0 0 0 0.0414185164  0 0 0 1 0" type="matrix" in="shadowBlurOuter1" result="shadowMatrixOuter1"></feColorMatrix>
            <feMerge>
                <feMergeNode in="shadowMatrixOuter1"></feMergeNode>
                <feMergeNode in="SourceGraphic"></feMergeNode>
            </feMerge>
        </filter>
    </defs>
    <g id="页面-1" stroke="none" stroke-width="1" fill="none" fill-rule="evenodd">
        <g id="员工考勤">
            <rect id="矩形备份-2" fill="#F6B92D" x="0" y="0" width="36" height="36" rx="9"></rect>
            <g id="学生考勤" filter="url(#filter-1)" transform="translate(9.000000, 9.000000)" fill="#FFFFFF" fill-rule="nonzero">
                <path d="M18.8554136,16.638335 L18.8554136,2.15179346 C18.8554136,1.77360607 18.4157611,1.71221201 18.4157611,1.71221201 L14.894198,1.71221201 L14.894198,0.612030525 C13.7326225,-0.581469928 12.7576849,0.580105616 12.7576849,0.580105616 L12.7576849,1.74413692 L6.47338929,1.74413692 L6.47338929,0.516255797 C5.31181375,-0.645319747 4.33687613,0.516255797 4.33687613,0.516255797 L4.33687613,1.71221201 L0.407656533,1.71221201 C-7.14720881e-13,1.71221201 -7.14720881e-13,2.15179346 -7.14720881e-13,2.15179346 L-7.14720881e-13,16.6702599 C-7.14720881e-13,18.2100228 1.28927518,17.9890042 1.28927518,17.9890042 L17.5979923,17.9890042 C18.8872675,17.99146 18.8554136,16.638335 18.8554136,16.638335 Z M15.1471416,9.69343932 C13.9536411,11.1398833 9.17718353,15.6953223 9.17718353,15.6953223 C9.17718353,15.6953223 8.20224591,16.4492413 7.4483269,15.6953223 C6.69440789,14.9414033 4.02253856,12.3653087 4.02253856,12.3653087 C4.02253856,12.3653087 3.77205082,10.5431331 5.68754537,10.9507896 L7.85598344,13.1511526 C7.85598344,13.1511526 8.23417082,13.6226589 8.73514632,13.1511526 L13.7006976,8.4066199 C13.7006976,8.4066199 15.7119669,7.90318864 15.1471416,9.69343932 Z M17.0626361,5.20185017 L1.76078153,5.20185017 L1.76078153,3.9444999 C1.76078153,3.56631251 2.23228788,3.47299355 2.23228788,3.47299355 L16.5297357,3.47299355 C17.033167,3.47299355 17.0650919,3.9444999 17.0650919,3.9444999 L17.0650919,5.20185017 L17.0626361,5.20185017 Z" id="形状"></path>
            </g>
        </g>
    </g>
</svg>