<?xml version="1.0" encoding="UTF-8"?>
<svg width="36px" height="36px" viewBox="0 0 36 36" version="1.1" xmlns="http://www.w3.org/2000/svg" xmlns:xlink="http://www.w3.org/1999/xlink">
    <title>组织结构</title>
    <defs>
        <filter x="-32.5%" y="-31.5%" width="165.0%" height="162.9%" filterUnits="objectBoundingBox" id="filter-1">
            <feOffset dx="0" dy="1" in="SourceAlpha" result="shadowOffsetOuter1"></feOffset>
            <feGaussianBlur stdDeviation="1" in="shadowOffsetOuter1" result="shadowBlurOuter1"></feGaussianBlur>
            <feColorMatrix values="0 0 0 0 0.0659722898   0 0 0 0 0.761096014   0 0 0 0 0.635104839  0 0 0 1 0" type="matrix" in="shadowBlurOuter1" result="shadowMatrixOuter1"></feColorMatrix>
            <feMerge>
                <feMergeNode in="shadowMatrixOuter1"></feMergeNode>
                <feMergeNode in="SourceGraphic"></feMergeNode>
            </feMerge>
        </filter>
        <linearGradient x1="50%" y1="0%" x2="50%" y2="100%" id="linearGradient-2">
            <stop stop-color="#FFFFFF" stop-opacity="0.5" offset="0%"></stop>
            <stop stop-color="#FFFFFF" offset="100%"></stop>
        </linearGradient>
    </defs>
    <g id="页面-1" stroke="none" stroke-width="1" fill="none" fill-rule="evenodd">
        <g id="组织结构">
            <rect id="矩形备份" fill="#37D7BA" x="0" y="0" width="36" height="36" rx="9"></rect>
            <g id="组织1" filter="url(#filter-1)" transform="translate(8.000000, 8.000000)" fill-rule="nonzero">
                <path d="M9.47544432,11.1920136 L0.478813056,6.47967517 C-0.11973138,6.10246748 -0.11973138,5.24086084 0.478813056,4.86365315 L9.47568412,0.151074918 C9.79533946,-0.050358306 10.2049203,-0.050358306 10.5245757,0.151074918 L19.5209671,4.86341335 C20.1195116,5.24062104 20.1195116,6.10222767 19.5209671,6.47943537 L10.5243359,11.1920136 C10.2046805,11.3936866 9.79509966,11.3936866 9.47544432,11.1920136 Z" id="形状" fill="url(#linearGradient-2)"></path>
                <path d="M9.98957864,16.0050686 C9.68239297,16.0050686 9.37520731,15.9237759 9.10447146,15.7611906 L0.412148251,11.2195908 C0.0366191696,11.0234332 -0.108940315,10.5596572 0.0874570785,10.1841281 C0.28361467,9.80859899 0.747390688,9.66303951 1.12291977,9.8594369 L9.86584109,14.4274149 L9.89197945,14.4437214 C9.95192981,14.4813702 10.0298653,14.4808906 10.0905351,14.4425223 L10.1164336,14.4262158 L10.1435312,14.4120676 L18.8756614,9.8268239 C19.2509507,9.62970711 19.7147267,9.77430738 19.9118435,10.1493569 C20.1089603,10.5246461 19.96436,10.9884222 19.5893106,11.185539 L10.8799614,15.7585527 C10.607547,15.9228167 10.2984429,16.0050686 9.98957864,16.0050686 Z" id="路径" fill="#FFFFFF"></path>
                <path d="M9.98957864,20.6665692 C9.68239297,20.6665692 9.37520731,20.5852765 9.10447146,20.4226911 L0.412148251,15.8810913 C0.0366191696,15.6849337 -0.108940315,15.2211577 0.0874570785,14.8456286 C0.28361467,14.4700995 0.747390688,14.32454 1.12291977,14.5209374 L9.86584109,19.0889154 L9.89197945,19.1052219 C9.95192981,19.1428707 10.0298653,19.1423911 10.0905351,19.1040229 L10.1164336,19.0877164 L10.1435312,19.0735681 L18.8756614,14.4883244 C19.2509507,14.2912076 19.7147267,14.4358079 19.9118435,14.8108574 C20.1089603,15.1861467 19.96436,15.6499227 19.5893106,15.8470395 L10.8799614,20.4202931 C10.607547,20.5845571 10.2984429,20.6665692 9.98957864,20.6665692 Z" id="路径" fill="#FFFFFF"></path>
            </g>
        </g>
    </g>
</svg>