<?xml version="1.0" encoding="UTF-8"?>
<svg width="36px" height="36px" viewBox="0 0 36 36" version="1.1" xmlns="http://www.w3.org/2000/svg" xmlns:xlink="http://www.w3.org/1999/xlink">
    <title>员工离职</title>
    <defs>
        <filter x="-28.6%" y="-36.1%" width="157.2%" height="172.2%" filterUnits="objectBoundingBox" id="filter-1">
            <feOffset dx="0" dy="1" in="SourceAlpha" result="shadowOffsetOuter1"></feOffset>
            <feGaussianBlur stdDeviation="1" in="shadowOffsetOuter1" result="shadowBlurOuter1"></feGaussianBlur>
            <feColorMatrix values="0 0 0 0 0.0659722898   0 0 0 0 0.761096014   0 0 0 0 0.635104839  0 0 0 1 0" type="matrix" in="shadowBlurOuter1" result="shadowMatrixOuter1"></feColorMatrix>
            <feMerge>
                <feMergeNode in="shadowMatrixOuter1"></feMergeNode>
                <feMergeNode in="SourceGraphic"></feMergeNode>
            </feMerge>
        </filter>
    </defs>
    <g id="页面-1" stroke="none" stroke-width="1" fill="none" fill-rule="evenodd">
        <g id="员工离职">
            <rect id="矩形备份-4" fill="#37D6B9" x="0" y="0" width="36" height="36" rx="9"></rect>
            <g id="办理入职备份" filter="url(#filter-1)" transform="translate(7.000000, 9.000000)" fill="#FFFFFF" fill-rule="nonzero">
                <path d="M8.05660329,2.36785535 L8.05660329,3.31106744 C8.05660329,4.61780919 9.11771689,5.67892279 10.4244586,5.67892279 C11.7312004,5.67892279 12.792314,4.61780919 12.792314,3.31106744 L12.792314,2.36785535 L18.952668,2.36785535 C19.9941313,2.36785535 20.8489173,3.21281619 20.8489173,4.26410465 L20.8489173,6.88741329 C20.8489173,7.52604649 20.2397595,7.98782739 19.6306017,7.81097515 C19.10987,7.65377314 18.559663,7.57517212 18.0094559,7.57517212 C14.8752407,7.57517212 12.3305331,10.1198797 12.3305331,13.2540949 C12.3305331,14.2857331 12.6056366,15.2485955 13.0870678,16.0837312 C13.4505974,16.7223644 12.9888165,17.5181996 12.2519321,17.5181996 L1.8962493,17.5181996 C0.85478596,17.5181996 0,16.6732388 0,15.6219503 L0,4.26410465 C0,3.22264131 0.844960843,2.36785535 1.8962493,2.36785535 L8.05660329,2.36785535 Z M5.23679212,7.10356608 C4.18550364,7.10356608 3.42896895,7.89940128 3.42896895,9.12754201 C3.42896895,9.83495108 3.66477198,10.5816606 4.14620314,11.0532667 C4.0970775,11.1908185 3.91040012,11.2890697 3.42896895,11.4757471 C2.66260913,11.8098014 2.04362619,12.4189592 1.90607442,13.1656688 C1.85694878,13.4505974 2.0927518,13.725701 2.37768047,13.725701 L8.04677817,13.725701 C8.33170683,13.725701 8.56750986,13.4407723 8.51838422,13.1656688 C8.37100733,12.3698336 7.80115003,11.7999763 6.99548968,11.4757471 C6.56318413,11.2890697 6.37650675,11.1908185 6.32738111,11.1023923 L6.32738111,11.0532667 C6.75968666,10.5816607 7.04461529,9.8742516 7.04461532,9.12754201 C7.04461532,7.9092264 6.2782555,7.10356608 5.23679212,7.10356608 Z M11.1416929,10.8960647 L9.24544352,10.8960647 C8.85243849,10.8960647 8.53803445,11.2104687 8.53803445,11.6034738 C8.53803445,11.9964788 8.85243849,12.3108828 9.24544352,12.3108828 L11.1416929,12.3108828 C11.5346979,12.3108828 11.8491019,11.9964788 11.8491019,11.6034738 C11.8491019,11.2104687 11.5346979,10.8960647 11.1416929,10.8960647 Z M13.5095482,7.57517212 L9.24544352,7.57517212 C8.85243849,7.57517212 8.53803445,7.88957617 8.53803445,8.28258119 C8.53803445,8.67558622 8.85243849,8.98999026 9.24544352,8.98999026 L13.5095482,8.98999026 C13.9025532,8.98999026 14.2169573,8.67558622 14.2169573,8.28258119 C14.2169573,7.88957617 13.9025532,7.57517212 13.5095482,7.57517212 Z" id="形状结合"></path>
                <path d="M15.6316688,9.16236659 C17.096957,8.3163313 18.9023046,8.3163313 20.3675927,9.16236659 C21.8328809,10.0084019 22.7354734,11.5719256 22.7353415,13.2639201 C22.7354734,14.9559145 21.8328809,16.5194382 20.3675927,17.3654735 C18.9023046,18.2115088 17.096957,18.2115088 15.6316688,17.3654735 C14.1663807,16.5194382 13.2637882,14.9559145 13.2639201,13.2639201 C13.2637882,11.5719256 14.1663807,10.0084019 15.6316688,9.16236659 Z M20.0090332,12.6676825 L16.1048016,12.6676825 C15.810815,12.6493982 15.5569174,12.9967993 15.5569174,13.4173374 C15.5569174,13.8378755 15.8108149,14.1669922 16.1048016,14.1669922 L20.0090332,14.1669922 C20.3163829,14.1669922 20.5569174,13.8195912 20.5569174,13.4173374 C20.5569174,12.9967993 20.3030199,12.6676825 20.0090332,12.6676825 Z" id="形状结合"></path>
                <path d="M9.37317018,0 L11.4757471,0 C11.9375281,0 12.320708,0.373354797 12.320708,0.844960814 L12.320708,3.27176695 C12.320708,4.30340518 11.5248728,5.1778414 10.4932345,5.20731675 C9.41247067,5.24661724 8.52820933,4.38200616 8.52820933,3.31106744 L8.52820933,0.844960814 C8.52820933,0.373354768 8.91138925,0 9.37317018,0 Z" id="路径" opacity="0.501662427"></path>
            </g>
        </g>
    </g>
</svg>