<?xml version="1.0" encoding="UTF-8"?>
<svg width="36px" height="36px" viewBox="0 0 36 36" version="1.1" xmlns="http://www.w3.org/2000/svg" xmlns:xlink="http://www.w3.org/1999/xlink">
    <title>员工档案</title>
    <defs>
        <filter x="-27.0%" y="-36.1%" width="153.9%" height="172.2%" filterUnits="objectBoundingBox" id="filter-1">
            <feOffset dx="0" dy="1" in="SourceAlpha" result="shadowOffsetOuter1"></feOffset>
            <feGaussianBlur stdDeviation="1" in="shadowOffsetOuter1" result="shadowBlurOuter1"></feGaussianBlur>
            <feColorMatrix values="0 0 0 0 0.101981707   0 0 0 0 0.410337386   0 0 0 0 1  0 0 0 1 0" type="matrix" in="shadowBlurOuter1" result="shadowMatrixOuter1"></feColorMatrix>
            <feMerge>
                <feMergeNode in="shadowMatrixOuter1"></feMergeNode>
                <feMergeNode in="SourceGraphic"></feMergeNode>
            </feMerge>
        </filter>
        <linearGradient x1="50%" y1="0%" x2="50%" y2="100%" id="linearGradient-2">
            <stop stop-color="#FFFFFF" offset="0%"></stop>
            <stop stop-color="#FFFFFF" stop-opacity="0.497159091" offset="100%"></stop>
        </linearGradient>
    </defs>
    <g id="页面-1" stroke="none" stroke-width="1" fill="none" fill-rule="evenodd">
        <g id="员工档案">
            <rect id="矩形" fill="#568FFC" x="0" y="0" width="36" height="36" rx="9"></rect>
            <g id="nav_教学档案" filter="url(#filter-1)" transform="translate(6.000000, 9.000000)" fill-rule="nonzero">
                <rect id="矩形" fill="#000000" opacity="0" x="0" y="0" width="18" height="18"></rect>
                <path d="M11.7857143,18 L11.7857143,0.923625 L17.3571429,0.923625 L17.3571429,18 L11.7857143,18 Z M15.6884462,3.1955625 L13.4583137,3.1955625 L13.4583137,7.7518125 L15.6884462,7.7518125 L15.6884462,3.1955625 Z M18.5357143,18 L18.5357143,0.923625 L24.1071429,0.923625 L24.1071429,18 L18.5357143,18 Z M22.4384462,3.1955625 L20.2083137,3.1955625 L20.2083137,7.7518125 L22.4384462,7.7518125 L22.4384462,3.1955625 Z" id="形状" fill="url(#linearGradient-2)" opacity="0.8"></path>
                <path d="M6.08326543,0 L11.351396,1.85625 L5.91098769,18 L0.642857143,16.14375 L6.08326543,0 Z M6.93963632,2.70225 L5.49005018,7.0093125 L7.59752541,7.7506875 L9.04711155,3.4441875 L6.93963632,2.70225 Z" id="形状结合" fill="#FFFFFF"></path>
            </g>
        </g>
    </g>
</svg>