<?xml version="1.0" encoding="UTF-8"?>
<svg width="36px" height="36px" viewBox="0 0 36 36" version="1.1" xmlns="http://www.w3.org/2000/svg" xmlns:xlink="http://www.w3.org/1999/xlink">
    <title>培训与发展</title>
    <defs>
        <filter x="-36.1%" y="-35.1%" width="172.2%" height="170.2%" filterUnits="objectBoundingBox" id="filter-1">
            <feOffset dx="0" dy="1" in="SourceAlpha" result="shadowOffsetOuter1"></feOffset>
            <feGaussianBlur stdDeviation="1" in="shadowOffsetOuter1" result="shadowBlurOuter1"></feGaussianBlur>
            <feColorMatrix values="0 0 0 0 0.984233469   0 0 0 0 0.488762121   0 0 0 0 0.0766869408  0 0 0 1 0" type="matrix" in="shadowBlurOuter1" result="shadowMatrixOuter1"></feColorMatrix>
            <feMerge>
                <feMergeNode in="shadowMatrixOuter1"></feMergeNode>
                <feMergeNode in="SourceGraphic"></feMergeNode>
            </feMerge>
        </filter>
    </defs>
    <g id="页面-1" stroke="none" stroke-width="1" fill="none" fill-rule="evenodd">
        <g id="培训与发展">
            <rect id="矩形备份-5" fill="#F99440" x="0" y="0" width="36" height="36" rx="9"></rect>
            <g id="培训" filter="url(#filter-1)" transform="translate(9.000000, 9.000000)" fill="#FFFFFF" fill-rule="nonzero">
                <path d="M8.99945332,1.22124533e-15 C9.5429152,1.121413e-15 9.9834781,0.440562902 9.9834781,0.984024783 L9.9834781,1.70345624 L9.9834781,1.70345624 L8.01542854,1.70345624 L8.01542854,0.984024783 C8.01542854,0.440562902 8.45599144,1.32107766e-15 8.99945332,1.22124533e-15 Z M8.10617749,14.2935067 L10.0742271,14.2935067 L10.0742271,16.994108 C10.0742271,17.5375699 9.63366415,17.9781328 9.09020227,17.9781328 C8.54674039,17.9781328 8.10617749,17.5375699 8.10617749,16.994108 L8.10617749,14.2935067 L8.10617749,14.2935067 Z M3.62911705,16.6131671 L5.54005953,13.7464982 L5.54005953,13.7464982 L7.17769544,14.8381097 L5.26674175,17.7048804 C4.96530103,18.1570952 4.35434257,18.2793216 3.90212784,17.9778809 C3.90211709,17.9778738 3.90210635,17.9778666 3.90209561,17.9778594 C3.44987154,17.6763868 3.32765601,17.0653989 3.62911705,16.6131671 Z M11.0043491,14.8399684 L12.6418757,13.7483569 L14.5523753,16.6141913 C14.8538227,17.0663758 14.7316261,17.6773152 14.2794415,17.9787626 C14.2794285,17.9787714 14.2794154,17.9787801 14.2794023,17.9787888 C13.827178,18.2802314 13.2162112,18.1580076 12.9147562,17.7057915 L11.0043491,14.8399684 L11.0043491,14.8399684 Z" id="形状" fill-opacity="0.5"></path>
                <path d="M0,3.13381522 L0,12.8073863 C-8.45784042e-16,13.9119558 0.8954305,14.8073863 2,14.8073863 L16,14.8073863 C17.1045695,14.8073863 18,13.9119558 18,12.8073863 L18,3.13381522 C18,2.02924572 17.1045695,1.13381522 16,1.13381522 L2,1.13381522 C0.8954305,1.13381522 -1.3527075e-16,2.02924572 0,3.13381522 Z M12.4194861,11.0385713 L5.66470267,11.0385713 L5.66470267,9.50786612 L12.4205795,9.50786612 L12.4205795,11.0385713 L12.4194861,11.0385713 Z M12.4194861,6.82585191 L5.66470267,6.82585191 L5.66470267,5.29514669 L12.4205795,5.29514669 L12.4205795,6.82585191 L12.4194861,6.82585191 Z" id="形状"></path>
            </g>
        </g>
    </g>
</svg>